<?xml version="1.0" encoding="utf-8"?>
<!-- Generator: Adobe Illustrator 15.1.0, SVG Export Plug-In . SVG Version: 6.00 Build 0)  -->
<!DOCTYPE svg PUBLIC "-//W3C//DTD SVG 1.1//EN" "http://www.w3.org/Graphics/SVG/1.1/DTD/svg11.dtd">
<svg version="1.1" id="Layer_1" xmlns="http://www.w3.org/2000/svg" xmlns:xlink="http://www.w3.org/1999/xlink" x="0px" y="0px"
	 width="200px" height="88px" viewBox="0 0 182 48.143" enable-background="new 0 0 182 48.143" xml:space="preserve">
<path fill="#474648" d="M18.333,23.289c-0.184-0.658-0.429-1.228-0.737-1.706c-0.31-0.478-0.661-0.877-1.054-1.2
	c-0.393-0.323-0.786-0.597-1.179-0.821c-0.926-0.504-1.993-0.787-3.201-0.842c-0.982,0-1.951,0.154-2.906,0.463
	c-0.953,0.309-1.837,0.702-2.653,1.179l-0.926-1.601L1.003,20.32l0.548,4.211v23.666h6.064v-7.874
	c0.701,0.309,1.466,0.567,2.295,0.779c0.827,0.21,1.649,0.315,2.463,0.315c0.308,0,0.806-0.056,1.495-0.168
	c0.688-0.112,1.383-0.379,2.084-0.799c0.701-0.422,1.319-1.068,1.853-1.938c0.533-0.869,0.801-2.063,0.801-3.58v-9.389
	C18.606,24.699,18.513,23.95,18.333,23.289z M12.457,34.891c0,0.14-0.042,0.302-0.126,0.483c-0.084,0.183-0.28,0.274-0.589,0.274
	c-0.395,0-0.913-0.076-1.558-0.232c-0.646-0.153-1.502-0.582-2.568-1.285v-8.126c1.011-0.646,1.845-1.06,2.505-1.243
	c0.659-0.183,1.186-0.273,1.579-0.273c0.337,0,0.548,0.14,0.632,0.422c0.084,0.28,0.126,0.504,0.126,0.673V34.891z"/>
<path fill="#474648" d="M44.333,26.595c-1.852-0.926-3.377-1.502-4.569-1.727c-1.193-0.224-1.986-0.337-2.379-0.337
	c-0.421,0-0.73,0.084-0.926,0.253c-0.197,0.169-0.296,0.337-0.296,0.506v9.642c0,0.197,0.099,0.373,0.296,0.527
	c0.196,0.154,0.504,0.232,0.926,0.232c0.393,0,1.186-0.106,2.379-0.317c1.192-0.21,2.717-0.78,4.569-1.706l2.443,4.886
	c-0.168,0.111-0.547,0.329-1.138,0.652c-0.589,0.323-1.326,0.652-2.21,0.99c-0.885,0.336-1.916,0.631-3.095,0.883
	c-1.18,0.254-2.443,0.381-3.79,0.381c-0.395,0-0.955-0.049-1.685-0.148c-0.73-0.099-1.453-0.365-2.169-0.801
	c-0.715-0.435-1.334-1.087-1.853-1.957c-0.519-0.871-0.778-2.064-0.778-3.579V25.29c0-1.517,0.259-2.709,0.778-3.58
	c0.519-0.87,1.138-1.516,1.853-1.938c0.716-0.42,1.439-0.68,2.169-0.778c0.73-0.098,1.291-0.148,1.685-0.148
	c1.375,0,2.674,0.148,3.895,0.442c1.222,0.294,2.309,0.611,3.264,0.947c1.095,0.421,2.12,0.884,3.074,1.391L44.333,26.595z"/>
<polygon fill="#474648" points="49.511,41.08 49.511,11.645 55.618,11.645 55.618,24.699 60.67,18.552 66.356,20.868 59.534,28.954 
	67.703,39.396 62.481,42.09 55.618,33.417 55.618,41.08 "/>
<path fill="#00AEEF" d="M86.334,23.331c-0.184-0.659-0.429-1.227-0.737-1.705s-0.66-0.877-1.052-1.2
	c-0.394-0.323-0.787-0.597-1.179-0.821c-0.927-0.506-1.992-0.786-3.201-0.844c-0.73,0-1.495,0.127-2.295,0.379
	c-0.799,0.253-1.522,0.563-2.167,0.928v-8.423h-6.106V41.08h4.884l0.379-1.178c0.759,0.421,1.607,0.787,2.547,1.095
	c0.941,0.307,1.946,0.463,3.012,0.463c0.308,0,0.806-0.049,1.495-0.148c0.688-0.099,1.375-0.358,2.063-0.78
	c0.688-0.42,1.297-1.059,1.832-1.915c0.532-0.856,0.8-2.043,0.8-3.559v-9.475C86.608,24.743,86.516,23.991,86.334,23.331z
	 M80.587,34.68c0,0.226-0.042,0.407-0.126,0.547c-0.058,0.142-0.162,0.261-0.316,0.358c-0.155,0.099-0.374,0.148-0.653,0.148
	c-0.394,0-0.892-0.111-1.495-0.337c-0.604-0.224-1.369-0.659-2.295-1.305v-7.706c1.011-0.702,1.795-1.129,2.357-1.284
	c0.562-0.154,1.039-0.233,1.433-0.233c0.279,0,0.498,0.058,0.653,0.169c0.154,0.113,0.258,0.239,0.316,0.378
	c0.084,0.169,0.126,0.352,0.126,0.547V34.68z"/>
<path fill="#00AEEF" d="M106.736,24.257c-0.028-0.378-0.118-0.805-0.273-1.284c-0.155-0.476-0.406-0.961-0.759-1.453
	c-0.35-0.491-0.848-0.947-1.493-1.367c-0.647-0.422-1.469-0.766-2.464-1.033c-0.998-0.266-2.226-0.399-3.685-0.399
	c-2.079,0-3.707,0.28-4.884,0.842c-1.18,0.562-2.051,1.214-2.61,1.958c-0.565,0.745-0.908,1.46-1.034,2.148
	c-0.125,0.687-0.19,1.158-0.19,1.41v10.022c0,0.169,0.016,0.443,0.042,0.822c0.028,0.378,0.119,0.807,0.273,1.284
	c0.155,0.477,0.408,0.963,0.756,1.452c0.353,0.492,0.851,0.948,1.497,1.369c0.646,0.422,1.467,0.766,2.463,1.032
	c0.997,0.267,2.225,0.401,3.686,0.401c1.096,0,2.057-0.092,2.884-0.274c0.827-0.183,1.543-0.421,2.148-0.716
	c0.604-0.294,1.116-0.631,1.536-1.01c0.421-0.379,0.771-0.766,1.053-1.159c0.647-0.926,1.011-1.992,1.095-3.201V25.079
	C106.778,24.912,106.764,24.638,106.736,24.257z M100.631,34.554c0,0.084-0.021,0.189-0.063,0.316
	c-0.042,0.126-0.147,0.251-0.316,0.379c-0.166,0.125-0.427,0.231-0.779,0.315c-0.35,0.084-0.821,0.127-1.409,0.127
	c-0.59,0-1.061-0.043-1.411-0.127c-0.353-0.084-0.61-0.189-0.779-0.315c-0.168-0.127-0.273-0.253-0.315-0.379
	c-0.042-0.127-0.063-0.232-0.063-0.316v-8.76c0-0.084,0.021-0.195,0.063-0.335c0.042-0.142,0.147-0.282,0.315-0.421
	c0.169-0.141,0.427-0.266,0.779-0.379c0.351-0.111,0.821-0.168,1.411-0.168c0.588,0,1.06,0.057,1.409,0.168
	c0.353,0.113,0.613,0.238,0.779,0.379c0.169,0.14,0.274,0.28,0.316,0.421c0.042,0.14,0.063,0.251,0.063,0.335V34.554z"/>
<polygon fill="#00AEEF" points="122.824,41.88 118.192,35.101 113.561,41.88 108.297,39.355 114.614,29.837 108.508,20.826 
	114.234,18.467 118.192,24.448 122.11,18.467 127.837,20.826 121.731,29.88 128.09,39.355 "/>
<polygon fill="#00AEEF" points="143.965,41.88 139.331,35.101 134.699,41.88 129.436,39.355 135.753,29.837 129.646,20.826 
	135.374,18.467 139.331,24.448 143.249,18.467 148.977,20.826 142.87,29.88 149.229,39.355 "/>
<path fill="#00AEEF" d="M152.909,39.663c0,0.195-0.033,0.386-0.104,0.573c-0.067,0.189-0.161,0.354-0.281,0.496
	c-0.118,0.142-0.266,0.261-0.436,0.351c-0.173,0.092-0.359,0.138-0.565,0.138c-0.205,0-0.394-0.045-0.563-0.138
	c-0.171-0.09-0.316-0.209-0.437-0.351c-0.121-0.143-0.214-0.307-0.283-0.496c-0.067-0.187-0.102-0.378-0.102-0.573
	c0-0.136,0.034-0.288,0.102-0.452c0.069-0.166,0.162-0.321,0.283-0.463c0.12-0.141,0.266-0.258,0.437-0.35
	c0.17-0.092,0.358-0.138,0.563-0.138c0.206,0,0.393,0.045,0.565,0.138c0.17,0.092,0.317,0.208,0.436,0.35
	c0.12,0.143,0.214,0.297,0.281,0.463C152.876,39.375,152.909,39.527,152.909,39.663z"/>
<path fill="#00AEEF" d="M160.486,35.183c-0.75-0.376-1.369-0.61-1.854-0.702c-0.485-0.091-0.807-0.136-0.966-0.136
	c-0.173,0-0.298,0.034-0.376,0.103c-0.082,0.067-0.122,0.137-0.122,0.205v3.917c0,0.079,0.04,0.149,0.122,0.213
	c0.078,0.062,0.203,0.094,0.376,0.094c0.159,0,0.48-0.043,0.966-0.129c0.484-0.084,1.104-0.316,1.854-0.692l0.993,1.985
	c-0.067,0.044-0.223,0.133-0.461,0.264c-0.24,0.13-0.538,0.265-0.899,0.401c-0.357,0.138-0.776,0.256-1.255,0.358
	c-0.48,0.105-0.994,0.156-1.54,0.156c-0.162,0-0.39-0.021-0.685-0.06c-0.298-0.04-0.592-0.147-0.881-0.325
	c-0.29-0.177-0.542-0.442-0.753-0.795c-0.21-0.354-0.316-0.838-0.316-1.456v-3.933c0-0.616,0.106-1.101,0.316-1.454
	c0.211-0.354,0.463-0.616,0.753-0.787c0.289-0.172,0.583-0.276,0.881-0.316c0.295-0.042,0.522-0.061,0.685-0.061
	c0.558,0,1.085,0.061,1.583,0.181c0.495,0.118,0.938,0.247,1.325,0.383c0.442,0.172,0.86,0.361,1.247,0.565L160.486,35.183z"/>
<path fill="#00AEEF" d="M179.436,41.064v-6.43c0-0.056-0.014-0.107-0.037-0.154c-0.023-0.034-0.053-0.069-0.094-0.103
	c-0.04-0.034-0.093-0.051-0.162-0.051s-0.135,0.002-0.197,0.009c-0.062,0.005-0.145,0.029-0.247,0.066
	c-0.104,0.041-0.225,0.103-0.367,0.189c-0.145,0.085-0.323,0.202-0.541,0.351v6.122h-2.479v-6.327c0-0.08-0.025-0.168-0.076-0.266
	c-0.051-0.098-0.134-0.145-0.249-0.145c-0.125,0-0.287,0.034-0.486,0.102c-0.199,0.069-0.48,0.234-0.846,0.498v6.138h-2.464v-6.703
	l-0.239-1.71l1.864-0.617l0.394,0.617c0.262-0.16,0.568-0.311,0.915-0.454c0.348-0.144,0.716-0.214,1.104-0.214
	c0.056,0,0.154,0.012,0.299,0.033c0.142,0.023,0.304,0.068,0.486,0.13c0.184,0.063,0.374,0.145,0.572,0.247
	c0.2,0.103,0.385,0.228,0.558,0.377c0.318-0.229,0.668-0.416,1.051-0.565c0.383-0.148,0.784-0.222,1.205-0.222
	c0.126,0,0.329,0.02,0.608,0.059c0.278,0.042,0.562,0.146,0.847,0.317c0.284,0.171,0.535,0.434,0.753,0.787
	c0.217,0.354,0.323,0.844,0.323,1.47v6.448H179.436z"/>
<polygon fill="#474648" points="21.257,20.315 21.257,41.039 27.404,41.039 27.404,20.719 24.331,24.957 "/>
<path fill-rule="evenodd" clip-rule="evenodd" fill="#00AEEF" d="M22.032,9.791l2.539,6.398c0,0,6.329-11.863,14.787-15.189
	c-0.488,2.927-1.526,5.401-0.463,8.678c-3.613,0.434-11.751,8.551-14.535,12.636c-2.929-4.453-6.545-7.982-9.196-9.238L22.032,9.791
	z"/>
<path fill="#00AEEF" d="M169.855,34.208c-0.012-0.149-0.048-0.314-0.108-0.504c-0.061-0.187-0.159-0.377-0.298-0.57
	c-0.137-0.192-0.332-0.372-0.584-0.536c-0.257-0.167-0.578-0.301-0.969-0.407c-0.394-0.104-0.875-0.156-1.448-0.156
	c-0.815,0-1.456,0.11-1.916,0.33c-0.465,0.222-0.807,0.477-1.024,0.769c-0.222,0.292-0.358,0.574-0.407,0.843
	c-0.05,0.271-0.074,0.455-0.074,0.554v3.936c0,0.066,0.007,0.173,0.016,0.322c0.011,0.148,0.048,0.316,0.107,0.504
	c0.062,0.187,0.162,0.377,0.299,0.57c0.139,0.193,0.332,0.373,0.587,0.538c0.254,0.165,0.576,0.301,0.966,0.405
	c0.393,0.105,0.874,0.158,1.447,0.158c0.432,0,0.809-0.037,1.133-0.108c0.325-0.071,0.605-0.166,0.843-0.281
	c0.236-0.116,0.441-0.247,0.604-0.396c0.164-0.148,0.302-0.301,0.412-0.454c0.255-0.364,0.398-0.784,0.431-1.257V34.53
	C169.871,34.466,169.866,34.357,169.855,34.208z M167.457,38.25c0,0.033-0.008,0.075-0.024,0.124c-0.016,0.05-0.06,0.1-0.126,0.15
	c-0.063,0.049-0.165,0.091-0.303,0.124c-0.139,0.033-0.325,0.049-0.556,0.049s-0.417-0.016-0.553-0.049
	c-0.14-0.033-0.239-0.075-0.306-0.124c-0.066-0.05-0.107-0.1-0.125-0.15c-0.018-0.049-0.025-0.091-0.025-0.124v-3.438
	c0-0.034,0.008-0.078,0.025-0.133c0.018-0.056,0.059-0.11,0.125-0.165c0.066-0.056,0.166-0.105,0.306-0.149
	c0.136-0.043,0.322-0.066,0.553-0.066s0.417,0.023,0.556,0.066c0.138,0.044,0.239,0.094,0.303,0.149
	c0.066,0.055,0.11,0.109,0.126,0.165c0.017,0.055,0.024,0.099,0.024,0.133V38.25z"/>
</svg>
